<?xml version="1.0" encoding="UTF-8" standalone="no"?>
<!-- Created with Inkscape (http://www.inkscape.org/) -->

<svg
   width="210mm"
   height="297mm"
   viewBox="0 0 210 297"
   version="1.1"
   id="svg5"
   inkscape:version="1.1 (c68e22c387, 2021-05-23)"
   sodipodi:docname="ac-icon-set.svg"
   xmlns:inkscape="http://www.inkscape.org/namespaces/inkscape"
   xmlns:sodipodi="http://sodipodi.sourceforge.net/DTD/sodipodi-0.dtd"
   xmlns="http://www.w3.org/2000/svg"
   xmlns:svg="http://www.w3.org/2000/svg">
  <sodipodi:namedview
     id="namedview7"
     pagecolor="#ffffff"
     bordercolor="#666666"
     borderopacity="1.0"
     inkscape:pageshadow="2"
     inkscape:pageopacity="0.0"
     inkscape:pagecheckerboard="0"
     inkscape:document-units="mm"
     showgrid="false"
     inkscape:zoom="0.56630543"
     inkscape:cx="746.94675"
     inkscape:cy="877.61828"
     inkscape:window-width="3840"
     inkscape:window-height="2066"
     inkscape:window-x="-11"
     inkscape:window-y="-11"
     inkscape:window-maximized="1"
     inkscape:current-layer="layer1" />
  <defs
     id="defs2" />
  <g
     inkscape:label="Capa 1"
     inkscape:groupmode="layer"
     id="layer1">
    <path
       id="path1512"
       style="fill:#000000;stroke-width:0.170189"
       d="m 484.18955,114.23211 v 10.89231 10.89177 h 2.72069 2.7212 l 0.0446,-6.22592 0.0446,-6.22645 7.63886,7.58519 49.26239,49.21087 -29.75547,29.68906 h -6.80861 -6.80864 l -9.52932,9.53038 -9.52983,9.5309 h 8.72034 8.71979 l 0.0441,8.70652 0.0441,8.70704 9.5787,-9.51496 9.57871,-9.5155 -0.005,-6.89202 -0.005,-6.89202 29.57009,-29.5398 29.57059,29.5398 -0.005,6.89202 -0.005,6.89202 9.5787,9.5155 9.57871,9.51496 0.0441,-8.70704 0.0441,-8.70652 h 8.7198 8.72031 l -9.52983,-9.5309 -9.52929,-9.53038 h -6.80864 -6.80863 l -29.75544,-29.68906 49.26238,-49.21087 7.63885,-7.58519 0.0446,6.22645 0.0446,6.22592 h 2.72123 2.72069 v -10.89177 -10.89231 h -10.98223 -10.98154 l 0.0468,2.68031 0.0473,2.68085 6.16909,0.0446 6.1696,0.17104 -7.54056,7.66541 -7.5406,7.53899 -41.63468,41.54172 -41.63416,-41.54172 -7.54059,-7.53899 -7.54059,-7.66541 6.16963,-0.17104 6.16909,-0.0446 0.0473,-2.68085 0.0468,-2.68031 H 495.1718 Z M 505.801,215.15459 h 4.89425 4.89427 l -0.026,4.89269 -0.0265,4.8932 -4.22814,4.16549 -4.22871,4.166 v -4.88893 -4.88951 h -4.68018 l -4.68021,-0.1264 4.04067,-4.16921 z m 79.48101,0 h 4.89427 4.89426 l 4.04066,4.04333 4.04065,4.16921 -4.68017,0.1264 h -4.6802 v 4.88951 4.88893 l -4.2287,-4.166 -4.22817,-4.16549 -0.0265,-4.8932 z" />
    <path
       style="fill:#000000;stroke-width:0.165571"
       d="m 135.61929,233.80017 c -0.8776,-0.99678 -1.59564,-1.90668 -1.59564,-2.02198 0,-0.11532 0.31504,-0.53065 0.70008,-0.92299 l 0.70008,-0.71333 -23.75571,-23.75615 C 98.602463,193.31984 87.837531,182.62958 87.746023,182.62958 c -0.0915,0 -4.133612,3.96777 -8.982474,8.81727 l -8.816105,8.81726 0.005,6.70507 0.005,6.70508 -9.318633,9.2572 -9.318632,9.2572 -0.04287,-8.47074 -0.04293,-8.47073 h -8.48352 -8.483482 l 9.270898,-9.27201 9.270897,-9.27201 h 6.623989 6.623988 l 8.969239,-8.98226 8.969234,-8.98226 -23.788462,-23.8885 c -13.083652,-13.13867 -23.838606,-23.88633 -23.899895,-23.8837 -0.06126,0.003 -0.412435,0.31186 -0.78032,0.68715 -0.369268,0.37672 -0.769249,0.64385 -0.892966,0.59638 -0.351577,-0.13492 -3.761935,-3.1096 -3.761935,-3.28135 0,-0.47543 5.050834,-5.41862 8.361367,-8.18317 13.490749,-11.26582 31.009847,-17.62087 48.595266,-17.62794 18.376163,-0.007 36.223113,6.89327 50.075993,19.36224 l 1.31517,1.18377 7.33595,-7.33456 c 4.03478,-4.03401 7.33595,-7.38983 7.33595,-7.45738 0,-0.0675 -2.70089,-0.14237 -6.00197,-0.16627 l -6.00197,-0.0435 -0.0456,-2.60775 -0.0456,-2.60775 h 10.68357 10.68358 v 10.59658 10.59658 h -2.64711 -2.6471 l -0.0434,-6.05728 -0.0434,-6.05729 -7.43159,7.37947 c -6.73683,6.68958 -7.41035,7.40678 -7.20446,7.67161 0.12492,0.16067 0.73903,0.84847 1.36469,1.52843 4.12443,4.48237 8.11336,10.37638 11.09719,16.39709 4.84078,9.76762 7.20729,19.48599 7.49919,30.79631 0.32468,12.58076 -2.1476,24.2905 -7.4643,35.35407 -2.8114,5.85026 -6.397,11.34212 -10.74109,16.4515 -1.73324,2.03859 -7.17074,7.46907 -7.47872,7.46907 -0.11504,0 -0.92719,-0.81555 -1.8048,-1.81233 z m 4.73807,-8.66008 c 2.63123,-2.96524 5.55667,-6.99831 7.65516,-10.55357 5.31874,-9.01101 8.43906,-18.62 9.54397,-29.39058 0.30064,-2.93061 0.25367,-10.53897 -0.0842,-13.63331 -1.22727,-11.24087 -4.63894,-21.11217 -10.50497,-30.39499 -1.91041,-3.02317 -3.77969,-5.46353 -7.34908,-9.59429 l -0.44875,-0.51932 -23.84888,23.84209 -23.84889,23.8421 23.8007,23.80113 c 13.09039,13.09063 23.84998,23.80114 23.91021,23.80114 0.0602,0 0.58885,-0.54018 1.1747,-1.2004 z m -75.568146,-18.70959 0.02553,-4.76018 h -4.761477 -4.761478 l -3.931028,3.93359 c -2.162072,2.16347 -3.931033,3.9889 -3.931033,4.0565 0,0.0676 2.048949,0.12291 4.553218,0.12291 h 4.553224 v 4.75648 4.75647 l 4.113775,-4.05279 4.113781,-4.0528 z m 46.882486,-55.51952 23.75931,-23.77116 -1.07621,-0.99155 c -1.37855,-1.27009 -4.4905,-3.68625 -6.75676,-5.24601 -8.82794,-6.07585 -19.34011,-10.19558 -29.83457,-11.69218 -5.239003,-0.74712 -12.591033,-0.89985 -17.30223,-0.35942 -11.675023,1.33926 -21.731847,4.8882 -31.09068,10.97155 -3.125413,2.03155 -8.102367,5.92318 -9.048795,7.07551 -0.215963,0.26295 1.845283,2.37026 23.510953,24.03632 13.061218,13.06146 23.822367,23.7481 23.913675,23.7481 0.0913,0 10.857691,-10.69702 23.925307,-23.77116 z"
       id="path836" />
    <path
       style="fill:#000000;stroke-width:0.706554"
       d="m 303.03207,237.89558 c -25.36026,-4.20528 -45.74262,-21.44301 -53.37087,-45.13673 -7.64364,-23.7414 -2.0559,-48.24324 15.13625,-66.37146 8.63511,-9.1053 19.16234,-15.32396 31.52235,-18.62094 8.62088,-2.29957 23.89902,-2.32083 32.5015,-0.0451 10.62991,2.81192 20.72194,8.27519 28.07655,15.19912 2.69661,2.53868 3.94243,3.29089 4.5926,2.7729 7.7223,-6.15224 18.40597,-12.65829 18.40597,-12.65829 l 0.50335,10.67859 v 8.65119 l 7.77211,3.61759 8.82992,4.31648 -7.4168,3.22143 c 0,0 -13.82451,6.92099 -13.8816,6.97456 -0.0571,0.0537 0.55136,2.48204 1.35204,5.39656 2.13625,7.77601 2.09547,24.86283 -0.0785,32.8548 -6.34107,23.31226 -24.75761,41.68784 -47.80246,47.69621 -6.30574,1.64405 -20.3003,2.42198 -26.14251,1.45322 z m 25.43596,-6.73828 c 6.69362,-1.84036 16.73342,-7.03918 22.3766,-11.58713 9.36452,-7.54701 17.13705,-19.16018 20.39368,-30.47076 2.19751,-7.6322 2.7054,-21.90729 1.0466,-29.4158 -0.67543,-3.05725 -1.36289,-5.78511 -1.5277,-6.06193 -0.16477,-0.27679 -1.07523,-0.14981 -2.02316,0.28203 -1.38665,0.6318 -3.1046,0.41413 -8.78949,-1.11352 -6.49503,-1.74541 -7.22435,-1.81307 -9.0262,-0.83778 -4.0124,2.1718 -3.93872,1.86683 -1.90598,7.88732 4.67389,13.84301 1.0873,29.17773 -9.2396,39.50462 -14.86621,14.86619 -39.09658,15.02864 -53.86244,0.36107 -8.44188,-8.38567 -11.90061,-17.39331 -11.3379,-29.52761 0.36609,-7.89436 2.02134,-13.25266 5.89719,-19.09011 7.38105,-11.11665 18.87768,-17.31945 32.10094,-17.31945 10.70203,0 19.89602,3.83225 27.40672,11.42367 l 4.44375,4.49147 2.76858,-1.83216 c 2.10182,-1.39093 2.95879,-2.55772 3.55834,-4.84477 2.22114,-8.47291 3.07773,-10.91041 4.30664,-12.25477 1.3345,-1.4599 1.32048,-1.48957 -2.02307,-4.28296 -7.84696,-6.55585 -16.10853,-10.93845 -25.27005,-13.4053 -6.9836,-1.88042 -23.39825,-1.88042 -30.38186,0 -41.62231,11.20734 -59.28251,60.60855 -33.95574,94.98494 9.13123,12.39392 21.27061,20.26547 36.78198,23.85054 5.65231,1.30641 22.41289,0.86659 28.26217,-0.74161 z m -7.79681,-26.89023 c 15.74858,-4.10198 26.29598,-19.01307 24.82857,-35.10069 -0.48391,-5.30521 -2.59383,-11.59584 -3.80474,-11.34369 -0.43571,0.0908 -3.96176,2.10439 -7.83569,4.47478 l -7.04348,4.30982 0.38452,3.72557 c 1.42906,13.84621 -14.69681,22.00874 -24.78734,12.54672 -7.63263,-7.15721 -5.47008,-19.78082 4.15179,-24.2356 4.99426,-2.31225 11.79107,-1.33263 15.60347,2.24897 l 1.49168,1.40137 7.95504,-4.93875 7.955,-4.93871 -3.7846,-3.78421 c -12.77534,-12.77392 -33.65892,-12.67912 -46.54933,0.21124 -7.47689,7.47686 -11.02046,18.28761 -9.29416,28.3547 3.33616,19.45494 22.09508,31.92201 40.72927,27.0684 z m -3.13166,-24.01155 c 2.54857,-1.31791 4.21621,-4.38708 4.21621,-7.75963 v -2.54261 l -4.46896,2.49919 c -3.84237,2.14877 -4.64569,2.36996 -5.72928,1.57764 -2.05258,-1.5009 -1.00358,-3.48082 3.39702,-6.41163 4.09998,-2.7306 4.1238,-2.76615 2.4677,-3.68435 -0.9197,-0.50995 -3.21986,-0.93842 -5.11147,-0.9522 -3.06836,-0.0214 -3.73506,0.27078 -6.18234,2.71805 -2.48781,2.48782 -2.7431,3.08736 -2.7431,6.44213 0,3.35477 0.25529,3.95431 2.7431,6.44212 2.40279,2.40278 3.15219,2.74308 6.04078,2.74308 1.81377,0 4.23041,-0.48231 5.37034,-1.07179 z m 63.75014,-38.58794 3.05413,-1.30133 -3.03702,-1.67007 -5.80524,-2.87876 -0.20055,-6.62364 -0.20055,-6.62363 -4.04447,2.56293 c 0,0 -12.5808,9.85263 -13.28764,12.59792 -0.42049,1.63322 -1.09627,4.02409 -1.50175,5.31309 -0.40548,1.28902 -0.55767,2.52322 -0.33818,2.7427 0.45453,0.45454 8.81769,2.9122 10.17019,2.98871 6.01525,-2.54301 15.19108,-7.10789 15.19108,-7.10789 z"
       id="path948"
       sodipodi:nodetypes="cssssssccccccsscsccssssssssssssssscssssssssssssscsssscccssssssscsssscssssscccccccsssccc" />
    <path
       id="path2002"
       style="color:#000000;fill:#000000;stroke-width:1.841;-inkscape-stroke:none"
       d="m 744.61044,105.5034 c -1.5069,0.0137 -1.85449,0.0924 -3.4282,0.43045 -3.97444,0.85305 -7.60688,2.07156 -10.39887,3.47266 -6.0833,3.05282 -11.22471,7.70977 -14.90607,13.50616 -2.7728,4.36597 -4.94548,10.31655 -5.55831,15.19132 -0.2072,1.64861 -0.19828,8.44505 -0.002,9.86297 1.06746,7.71629 4.63266,15.00458 10.13841,20.70725 2.50221,2.59175 4.8316,4.43598 8.4124,6.65437 0.79166,0.49049 1.32217,0.83609 1.69137,1.12501 0.1846,0.14444 0.32994,0.25789 0.48628,0.4744 0.0782,0.10824 0.17417,0.25043 0.20876,0.5116 0.0346,0.26114 -0.0902,0.64722 -0.28319,0.84024 -5.5e-4,5.5e-4 -0.11488,0.097 -0.1447,0.11678 -0.0299,0.0198 -0.0481,0.0324 -0.0641,0.0414 -0.0321,0.0178 -0.0518,0.0251 -0.0687,0.0331 -0.0338,0.0161 -0.0581,0.0277 -0.0858,0.0393 -0.0555,0.0233 -0.11951,0.0478 -0.19741,0.078 -0.15589,0.0604 -0.36721,0.1393 -0.62478,0.2341 -0.51509,0.18966 -1.21034,0.44104 -1.96887,0.70901 -3.67189,1.29725 -4.94435,1.81435 -7.60159,3.08819 -6.77328,3.24696 -12.87087,7.62878 -18.34928,13.19143 -5.32124,5.40311 -9.09875,10.88745 -12.12122,17.59376 -3.12399,6.93158 -4.87709,14.02631 -5.39245,21.83742 -0.0164,0.24622 -0.0158,0.47212 -0.0258,0.71106 h 6.92618 c 0.57026,-8.63832 2.35654,-15.56271 5.89217,-22.63272 2.81067,-5.62033 6.00998,-10.03604 10.5668,-14.58772 3.98758,-3.98312 7.83333,-6.89338 12.6483,-9.56842 5.1186,-2.84371 11.16703,-5.01372 16.93542,-6.0761 7.3602,-1.35557 15.24272,-1.22563 22.56864,0.37309 8.79078,1.91836 16.79937,5.85269 24.05642,11.80652 1.95791,1.60634 5.89809,5.63055 7.56438,7.71684 4.29657,5.37948 7.36489,10.9438 9.55085,17.33174 1.7653,5.15874 2.4661,8.79108 3.00189,15.50811 0.004,0.0464 0.008,0.0847 0.0119,0.12866 h 6.77529 c -0.0325,-1.51847 -0.0827,-3.16502 -0.19947,-4.27156 -0.99502,-9.42232 -4.26392,-18.37664 -9.75755,-26.69707 -6.26586,-9.49005 -15.40266,-17.38789 -26.05061,-22.50768 -2.56598,-1.23378 -4.43478,-1.98734 -7.78144,-3.13314 -0.66133,-0.22643 -1.26146,-0.44548 -1.70892,-0.62064 -0.22373,-0.0876 -0.40738,-0.16216 -0.55655,-0.23047 -0.0746,-0.0341 -0.13727,-0.0653 -0.21707,-0.11163 -0.0399,-0.0231 -0.0819,-0.0449 -0.15811,-0.10748 -0.0381,-0.0313 -0.0875,-0.0708 -0.15608,-0.1602 -0.0343,-0.0447 -0.0743,-0.102 -0.11369,-0.19119 -0.0197,-0.0446 -0.0541,-0.15965 -0.0542,-0.1602 -1.1e-4,-5.3e-4 -0.0258,-0.21654 -0.0258,-0.21704 0,-0.34584 0.12771,-0.50147 0.20722,-0.61288 0.0795,-0.11142 0.14999,-0.18219 0.22479,-0.25218 0.1497,-0.13993 0.31777,-0.26736 0.53486,-0.42169 0.43418,-0.30869 1.06058,-0.71056 1.94561,-1.25418 8.78848,-5.3984 14.83146,-13.56942 17.33952,-23.43525 0.67019,-2.63626 0.83587,-4.21929 0.84386,-8.1406 0.008,-3.70779 -0.15925,-5.81043 -0.61132,-7.93181 -2.86916,-13.46367 -12.18152,-23.85552 -25.29302,-28.21689 -3.87911,-1.29034 -7.18193,-1.75818 -12.6442,-1.77509 -0.84815,-0.003 -1.47947,-0.006 -1.98179,-10e-4 z m 1.71617,6.84869 0.91004,0.008 v 0.0176 c 0.18137,0.006 0.31411,0.005 0.52347,0.0134 2.8067,0.10063 5.67815,0.38659 7.16804,0.76171 4.86172,1.22415 9.58199,3.70092 13.18731,6.9319 4.27387,3.83011 7.5792,9.21298 9.18549,14.93346 1.21033,4.31035 1.35223,11.01283 0.293,15.10138 -1.5643,6.03814 -4.21746,10.74798 -8.43722,14.94949 -4.79372,4.77297 -10.93073,7.8051 -17.53949,8.66201 -2.42295,0.31411 -6.15953,0.28493 -8.48218,-0.0724 -6.56566,-1.00986 -12.26846,-3.89625 -16.97881,-8.59171 -4.20854,-4.19528 -6.88448,-8.88497 -8.37261,-14.6699 -1.09752,-4.26648 -1.02692,-10.93742 0.15608,-15.25386 2.61882,-9.55535 9.29029,-17.05047 18.42368,-20.69124 2.01054,-0.80148 3.8826,-1.30593 6.4766,-1.75027 1.57144,-0.26921 2.27854,-0.36113 3.4866,-0.34933 z" />
  </g>
</svg>
