<svg xmlns:xlink="http://www.w3.org/1999/xlink" width="30.841" xmlns="http://www.w3.org/2000/svg" height="31.841" id="screenshot-bc6a788e-06cd-11ed-85b6-d34ec9b6c101" viewBox="5086.0795 941.0795 30.841 31.841" style="-webkit-print-color-adjust: exact;" fill="none" version="1.1"><g id="shape-bc6a788e-06cd-11ed-85b6-d34ec9b6c101"><g id="fills-bc6a788e-06cd-11ed-85b6-d34ec9b6c101"><path rx="0" ry="0" d="M5100.82026722269,942.0005896936748C5100.47480708032,942.0037402647263,5100.395121307616,942.0218388006201,5100.034344825667,942.0995797162363C5099.123195706122,942.2957545071431,5098.290450839474,942.575973655456,5097.650380985538,942.8981827868552C5096.255771068435,943.6002358027124,5095.07709150736,944.671188493076,5094.2331316230175,946.0041760175372C5093.597461118827,947.008212418518,5093.099369445772,948.3766595051788,5092.958876819155,949.4977039755736C5092.911375763015,949.8768326574063,5092.913420692652,951.4398010600937,5092.958418314753,951.7658782648566C5093.203135869717,953.5403833669357,5094.020465818338,955.2164618697434,5095.282671126492,956.5278974184948C5095.856308277491,957.1239187705064,5096.390326063034,957.5480339274545,5097.211232346,958.0581941694102C5097.3927221438025,958.1709915121123,5097.514342729195,958.2504686913369,5097.598982641972,958.3169112452188C5097.64130259836,958.3501279227858,5097.67462211332,958.3762178706534,5097.7104634024945,958.4260083917006C5097.728390924649,958.4509002026939,5097.750392258422,958.4835994507084,5097.75832209207,958.5436603734461C5097.766254218241,958.603714397123,5097.737643543499,958.6925007089139,5097.693400161141,958.7368892654358C5097.69327407243,958.7370157482153,5097.6670636682375,958.7591962283548,5097.66022736759,958.7637450090406C5097.653372726767,958.7682983891004,5097.6492003367,958.771195994593,5097.645532301477,958.7732657128017C5097.63817330581,958.7773591554819,5097.6336570374415,958.7790379269181,5097.629782675237,958.7808776764373C5097.622033950828,958.7845801723442,5097.616463122333,958.787247809147,5097.6101128363525,958.7899154459496C5097.597389339172,958.7952737164239,5097.582714905757,958.8009079493261,5097.564856159263,958.8078530037608C5097.529118033579,958.82174311263,5097.480672458368,958.839887642262,5097.421623968839,958.8616886740629C5097.303538452393,958.9053045357869,5097.1441508593325,958.9631140650504,5096.9702561869635,959.0247387748789C5096.128467320968,959.3230656578332,5095.8367530647065,959.4419824673732,5095.227574944916,959.7349257832975C5093.674785593855,960.4816249206092,5092.276899662794,961.4893063253248,5091.020962109828,962.768541658118C5089.801056125366,964.0110877861268,5088.935053641853,965.2723142708153,5088.242145740525,966.8145555954834C5087.525964155707,968.4086019669221,5087.124062121338,970.0401677301156,5087.005914706797,971.8364784633698C5087.0021549706935,971.8931013541935,5087.002292522015,971.9450512812386,5087,972L5088.587842012663,972C5088.718575373065,970.0134568667856,5089.128083995477,968.4210639702271,5089.938634956502,966.7951830330476C5090.582987241562,965.5026831062216,5091.316436102194,964.4872080626058,5092.361097118821,963.4404641762264C5093.275258612293,962.5244712881681,5094.156905266033,961.8552026087411,5095.260747738466,961.240027164549C5096.434198056826,960.5860629014339,5097.820813949664,960.0870285446947,5099.143230056007,959.842714407934C5100.830572109146,959.5309757509854,5102.637657172147,959.560857882549,5104.31714045982,959.9285134264433C5106.332446127313,960.3696761623728,5108.168433015353,961.2744488780511,5109.832127703911,962.643643362954C5110.280982881659,963.0130512682651,5111.184277820782,963.9384935697906,5111.566278471542,964.4182749478127C5112.551276602741,965.6553869156794,5113.2546957175055,966.9350062961848,5113.755831859795,968.4040324890543C5114.160530771021,969.5903811683158,5114.321190713799,970.4257056393358,5114.444021750816,971.9704122283595C5114.444938759622,971.98108277557,5114.445855768428,971.9898905763928,5114.446749852013,972L5116,972C5115.9925493034525,971.6507994434692,5115.981040842939,971.2721444971376,5115.954271063376,971.0176749430314C5115.726160537885,968.8508363569465,5114.9767580165535,966.791623117728,5113.717331245082,964.8781847313412C5112.280869046082,962.6957703658904,5110.186237531842,960.8795144481626,5107.745171553375,959.7021230493722C5107.156914989489,959.4183922791649,5106.728488475413,959.2450970732145,5105.961259302896,958.9815989483432C5105.8096479445085,958.9295271378924,5105.672066820851,958.8791524963731,5105.569485630788,958.8388711806526C5105.518195035756,958.8187259234185,5105.476092868959,958.8015794579007,5105.441895318069,958.7858702966946C5105.424793103841,958.7780283643697,5105.410425868376,958.7708533412451,5105.3921315427,958.7601988918427C5105.382984379861,958.7548866151062,5105.3733557874,958.7498732976669,5105.355884477128,958.7354818570536C5105.347149968253,958.7282838370602,5105.335824909501,958.7192000738096,5105.320102793525,958.698640872934C5105.312239443015,958.688361272496,5105.303069354957,958.6751840665656,5105.294039110741,958.6546731591147C5105.289522842373,958.6444165555458,5105.281636566643,958.6179586577744,5105.281613641423,958.6178321749949C5105.281588423681,958.6177102915894,5105.275698934625,958.5680347548871,5105.275698934625,958.5679197705422C5105.275698934625,958.488387398832,5105.304976733273,958.4525973716252,5105.32320457581,958.4269765598849C5105.341430125826,958.4013534484579,5105.357590113506,958.3850785642746,5105.374738178175,958.3689830556696C5105.409057232733,958.3368035368937,5105.447587650231,958.3074986267416,5105.497356010645,958.2720075588318C5105.596892731472,958.2010185239508,5105.740496310463,958.1086010065465,5105.943391386315,957.9835854273506C5107.958169773745,956.7421224518712,5109.343536242085,954.86304368744,5109.918514518463,952.594211687704C5110.072157051354,951.9879544293058,5110.110139556092,951.6239070941556,5110.1119712811815,950.7221285708195C5110.113805298793,949.8694529621478,5110.0754628681,949.3859115960463,5109.9718248253885,948.8980606166963C5109.314063579066,945.8018387556472,5107.1791845483385,943.4120386256573,5104.17334430898,942.4090600806501C5103.2840498017995,942.1123222813426,5102.526871045795,942.0047337294668,5101.274633623361,942.0008449589204C5101.080193368698,942.0001550528509,5100.935461868876,941.9994651467814,5100.82026722269,942.0005896936748ZZM5101.2137029732585,943.5755739604087L5101.42233164667,943.5774137099279L5101.42233164667,943.5814611588701C5101.463911118447,943.5828409710093,5101.494342055668,943.5826110023195,5101.542338296564,943.5845427393147C5102.185780450383,943.6076844885777,5102.844066684248,943.6734463351374,5103.185627246671,943.7597121900876C5104.300187259522,944.0412283618111,5105.382319548477,944.6108079138598,5106.208847095422,945.3538321515068C5107.188641201648,946.2346368404194,5107.946395380679,947.4725284021451,5108.314640899352,948.7880596932632C5108.592111716337,949.7793052357124,5108.624642603723,951.3206657802984,5108.381811794377,952.2609042673312C5108.023192575643,953.6494874124783,5107.4149498048355,954.7326031468501,5106.447560535229,955.6988188970922C5105.348589672078,956.7964525548566,5103.941666619235,957.4937475185202,5102.426593840357,957.69080998857C5101.871127218845,957.7630454537502,5101.014508027938,957.7563349673792,5100.482035402231,957.6741602554225C5098.976843393236,957.4419240742541,5097.669463938787,956.7781447474547,5096.58960583167,955.6983359628434C5095.6247887717645,954.7335529175393,5095.011323635807,953.6550710522688,5094.670166557258,952.3247182790874C5094.418557681119,951.3435614630635,5094.434742886541,949.8094541309565,5094.70594824086,948.8168080791859C5095.306318491072,946.6193767582854,5096.835767675503,944.8957345212543,5098.929617439737,944.0584714141787C5099.390538160847,943.874156108609,5099.8197120371005,943.7581484029963,5100.414392247671,943.6559641153324C5100.774648327123,943.5940542443282,5100.93675255877,943.5729155223539,5101.2137029732585,943.5755739604087ZZ" style="color: rgb(0, 0, 0); fill: rgb(0, 0, 0);"/></g><g id="strokes-bc6a788e-06cd-11ed-85b6-d34ec9b6c101"><g class="stroke-shape"><path rx="0" ry="0" d="M5100.82026722269,942.0005896936748C5100.47480708032,942.0037402647263,5100.395121307616,942.0218388006201,5100.034344825667,942.0995797162363C5099.123195706122,942.2957545071431,5098.290450839474,942.575973655456,5097.650380985538,942.8981827868552C5096.255771068435,943.6002358027124,5095.07709150736,944.671188493076,5094.2331316230175,946.0041760175372C5093.597461118827,947.008212418518,5093.099369445772,948.3766595051788,5092.958876819155,949.4977039755736C5092.911375763015,949.8768326574063,5092.913420692652,951.4398010600937,5092.958418314753,951.7658782648566C5093.203135869717,953.5403833669357,5094.020465818338,955.2164618697434,5095.282671126492,956.5278974184948C5095.856308277491,957.1239187705064,5096.390326063034,957.5480339274545,5097.211232346,958.0581941694102C5097.3927221438025,958.1709915121123,5097.514342729195,958.2504686913369,5097.598982641972,958.3169112452188C5097.64130259836,958.3501279227858,5097.67462211332,958.3762178706534,5097.7104634024945,958.4260083917006C5097.728390924649,958.4509002026939,5097.750392258422,958.4835994507084,5097.75832209207,958.5436603734461C5097.766254218241,958.603714397123,5097.737643543499,958.6925007089139,5097.693400161141,958.7368892654358C5097.69327407243,958.7370157482153,5097.6670636682375,958.7591962283548,5097.66022736759,958.7637450090406C5097.653372726767,958.7682983891004,5097.6492003367,958.771195994593,5097.645532301477,958.7732657128017C5097.63817330581,958.7773591554819,5097.6336570374415,958.7790379269181,5097.629782675237,958.7808776764373C5097.622033950828,958.7845801723442,5097.616463122333,958.787247809147,5097.6101128363525,958.7899154459496C5097.597389339172,958.7952737164239,5097.582714905757,958.8009079493261,5097.564856159263,958.8078530037608C5097.529118033579,958.82174311263,5097.480672458368,958.839887642262,5097.421623968839,958.8616886740629C5097.303538452393,958.9053045357869,5097.1441508593325,958.9631140650504,5096.9702561869635,959.0247387748789C5096.128467320968,959.3230656578332,5095.8367530647065,959.4419824673732,5095.227574944916,959.7349257832975C5093.674785593855,960.4816249206092,5092.276899662794,961.4893063253248,5091.020962109828,962.768541658118C5089.801056125366,964.0110877861268,5088.935053641853,965.2723142708153,5088.242145740525,966.8145555954834C5087.525964155707,968.4086019669221,5087.124062121338,970.0401677301156,5087.005914706797,971.8364784633698C5087.0021549706935,971.8931013541935,5087.002292522015,971.9450512812386,5087,972L5088.587842012663,972C5088.718575373065,970.0134568667856,5089.128083995477,968.4210639702271,5089.938634956502,966.7951830330476C5090.582987241562,965.5026831062216,5091.316436102194,964.4872080626058,5092.361097118821,963.4404641762264C5093.275258612293,962.5244712881681,5094.156905266033,961.8552026087411,5095.260747738466,961.240027164549C5096.434198056826,960.5860629014339,5097.820813949664,960.0870285446947,5099.143230056007,959.842714407934C5100.830572109146,959.5309757509854,5102.637657172147,959.560857882549,5104.31714045982,959.9285134264433C5106.332446127313,960.3696761623728,5108.168433015353,961.2744488780511,5109.832127703911,962.643643362954C5110.280982881659,963.0130512682651,5111.184277820782,963.9384935697906,5111.566278471542,964.4182749478127C5112.551276602741,965.6553869156794,5113.2546957175055,966.9350062961848,5113.755831859795,968.4040324890543C5114.160530771021,969.5903811683158,5114.321190713799,970.4257056393358,5114.444021750816,971.9704122283595C5114.444938759622,971.98108277557,5114.445855768428,971.9898905763928,5114.446749852013,972L5116,972C5115.9925493034525,971.6507994434692,5115.981040842939,971.2721444971376,5115.954271063376,971.0176749430314C5115.726160537885,968.8508363569465,5114.9767580165535,966.791623117728,5113.717331245082,964.8781847313412C5112.280869046082,962.6957703658904,5110.186237531842,960.8795144481626,5107.745171553375,959.7021230493722C5107.156914989489,959.4183922791649,5106.728488475413,959.2450970732145,5105.961259302896,958.9815989483432C5105.8096479445085,958.9295271378924,5105.672066820851,958.8791524963731,5105.569485630788,958.8388711806526C5105.518195035756,958.8187259234185,5105.476092868959,958.8015794579007,5105.441895318069,958.7858702966946C5105.424793103841,958.7780283643697,5105.410425868376,958.7708533412451,5105.3921315427,958.7601988918427C5105.382984379861,958.7548866151062,5105.3733557874,958.7498732976669,5105.355884477128,958.7354818570536C5105.347149968253,958.7282838370602,5105.335824909501,958.7192000738096,5105.320102793525,958.698640872934C5105.312239443015,958.688361272496,5105.303069354957,958.6751840665656,5105.294039110741,958.6546731591147C5105.289522842373,958.6444165555458,5105.281636566643,958.6179586577744,5105.281613641423,958.6178321749949C5105.281588423681,958.6177102915894,5105.275698934625,958.5680347548871,5105.275698934625,958.5679197705422C5105.275698934625,958.488387398832,5105.304976733273,958.4525973716252,5105.32320457581,958.4269765598849C5105.341430125826,958.4013534484579,5105.357590113506,958.3850785642746,5105.374738178175,958.3689830556696C5105.409057232733,958.3368035368937,5105.447587650231,958.3074986267416,5105.497356010645,958.2720075588318C5105.596892731472,958.2010185239508,5105.740496310463,958.1086010065465,5105.943391386315,957.9835854273506C5107.958169773745,956.7421224518712,5109.343536242085,954.86304368744,5109.918514518463,952.594211687704C5110.072157051354,951.9879544293058,5110.110139556092,951.6239070941556,5110.1119712811815,950.7221285708195C5110.113805298793,949.8694529621478,5110.0754628681,949.3859115960463,5109.9718248253885,948.8980606166963C5109.314063579066,945.8018387556472,5107.1791845483385,943.4120386256573,5104.17334430898,942.4090600806501C5103.2840498017995,942.1123222813426,5102.526871045795,942.0047337294668,5101.274633623361,942.0008449589204C5101.080193368698,942.0001550528509,5100.935461868876,941.9994651467814,5100.82026722269,942.0005896936748ZZM5101.2137029732585,943.5755739604087L5101.42233164667,943.5774137099279L5101.42233164667,943.5814611588701C5101.463911118447,943.5828409710093,5101.494342055668,943.5826110023195,5101.542338296564,943.5845427393147C5102.185780450383,943.6076844885777,5102.844066684248,943.6734463351374,5103.185627246671,943.7597121900876C5104.300187259522,944.0412283618111,5105.382319548477,944.6108079138598,5106.208847095422,945.3538321515068C5107.188641201648,946.2346368404194,5107.946395380679,947.4725284021451,5108.314640899352,948.7880596932632C5108.592111716337,949.7793052357124,5108.624642603723,951.3206657802984,5108.381811794377,952.2609042673312C5108.023192575643,953.6494874124783,5107.4149498048355,954.7326031468501,5106.447560535229,955.6988188970922C5105.348589672078,956.7964525548566,5103.941666619235,957.4937475185202,5102.426593840357,957.69080998857C5101.871127218845,957.7630454537502,5101.014508027938,957.7563349673792,5100.482035402231,957.6741602554225C5098.976843393236,957.4419240742541,5097.669463938787,956.7781447474547,5096.58960583167,955.6983359628434C5095.6247887717645,954.7335529175393,5095.011323635807,953.6550710522688,5094.670166557258,952.3247182790874C5094.418557681119,951.3435614630635,5094.434742886541,949.8094541309565,5094.70594824086,948.8168080791859C5095.306318491072,946.6193767582854,5096.835767675503,944.8957345212543,5098.929617439737,944.0584714141787C5099.390538160847,943.874156108609,5099.8197120371005,943.7581484029963,5100.414392247671,943.6559641153324C5100.774648327123,943.5940542443282,5100.93675255877,943.5729155223539,5101.2137029732585,943.5755739604087ZZ" style="color: rgb(0, 0, 0); fill: none; stroke-width: 1.841;"/></g></g></g></svg>