<?xml version="1.0" encoding="UTF-8" standalone="no"?>
<!-- Created with Inkscape (http://www.inkscape.org/) -->

<svg
   width="150.69264mm"
   height="132.29169mm"
   viewBox="0 0 150.69264 132.29169"
   version="1.1"
   id="svg5"
   inkscape:version="1.1 (c68e22c387, 2021-05-23)"
   sodipodi:docname="icon-score.svg"
   xmlns:inkscape="http://www.inkscape.org/namespaces/inkscape"
   xmlns:sodipodi="http://sodipodi.sourceforge.net/DTD/sodipodi-0.dtd"
   xmlns="http://www.w3.org/2000/svg"
   xmlns:svg="http://www.w3.org/2000/svg">
  <sodipodi:namedview
     id="namedview7"
     pagecolor="#ffffff"
     bordercolor="#666666"
     borderopacity="1.0"
     inkscape:pageshadow="2"
     inkscape:pageopacity="0.0"
     inkscape:pagecheckerboard="0"
     inkscape:document-units="mm"
     showgrid="false"
     inkscape:zoom="0.56630543"
     inkscape:cx="635.69936"
     inkscape:cy="566.83193"
     inkscape:window-width="3840"
     inkscape:window-height="2066"
     inkscape:window-x="-11"
     inkscape:window-y="-11"
     inkscape:window-maximized="1"
     inkscape:current-layer="layer1"
     fit-margin-top="0"
     fit-margin-left="0"
     fit-margin-right="0"
     fit-margin-bottom="0" />
  <defs
     id="defs2" />
  <g
     inkscape:label="Capa 1"
     inkscape:groupmode="layer"
     id="layer1"
     transform="translate(-29.65368,-82.354155)">
    <path
       style="fill:#000000;stroke-width:0.706554"
       d="m 86.376584,214.22166 c -25.36026,-4.20528 -45.74262,-21.44301 -53.37087,-45.13673 -7.64364,-23.7414 -2.0559,-48.24324 15.13625,-66.37146 8.63511,-9.105297 19.16234,-15.323957 31.52235,-18.620937 8.62088,-2.29957 23.899026,-2.32083 32.501506,-0.0451 10.62991,2.81192 20.72194,8.27519 28.07655,15.19912 2.69661,2.538677 3.94243,3.290887 4.5926,2.772897 7.7223,-6.152237 18.40597,-12.658287 18.40597,-12.658287 l 0.50335,10.678587 v 8.65119 l 7.77211,3.61759 8.82992,4.31648 -7.4168,3.22143 c 0,0 -13.82451,6.92099 -13.8816,6.97456 -0.0571,0.0537 0.55136,2.48204 1.35204,5.39656 2.13625,7.77601 2.09547,24.86283 -0.0785,32.8548 -6.34107,23.31226 -24.75761,41.68784 -47.80246,47.69621 -6.30574,1.64405 -20.300306,2.42198 -26.142516,1.45322 z m 25.435966,-6.73828 c 6.69362,-1.84036 16.73342,-7.03918 22.3766,-11.58713 9.36452,-7.54701 17.13705,-19.16018 20.39368,-30.47076 2.19751,-7.6322 2.7054,-21.90729 1.0466,-29.4158 -0.67543,-3.05725 -1.36289,-5.78511 -1.5277,-6.06193 -0.16477,-0.27679 -1.07523,-0.14981 -2.02316,0.28203 -1.38665,0.6318 -3.1046,0.41413 -8.78949,-1.11352 -6.49503,-1.74541 -7.22435,-1.81307 -9.0262,-0.83778 -4.0124,2.1718 -3.93872,1.86683 -1.90598,7.88732 4.67389,13.84301 1.0873,29.17773 -9.2396,39.50462 -14.86621,14.86619 -39.096586,15.02864 -53.862446,0.36107 -8.44188,-8.38567 -11.90061,-17.39331 -11.3379,-29.52761 0.36609,-7.89436 2.02134,-13.25266 5.89719,-19.09011 7.38105,-11.11665 18.87768,-17.31945 32.10094,-17.31945 10.702036,0 19.896026,3.83225 27.406726,11.42367 l 4.44375,4.49147 2.76858,-1.83216 c 2.10182,-1.39093 2.95879,-2.55772 3.55834,-4.84477 2.22114,-8.47291 3.07773,-10.91041 4.30664,-12.25477 1.3345,-1.4599 1.32048,-1.48957 -2.02307,-4.28296 -7.84696,-6.555847 -16.10853,-10.938447 -25.27005,-13.405297 -6.9836,-1.88042 -23.398256,-1.88042 -30.381866,0 -41.62231,11.207337 -59.28251,60.608547 -33.95574,94.984937 9.13123,12.39392 21.27061,20.26547 36.78198,23.85054 5.65231,1.30641 22.412896,0.86659 28.262176,-0.74161 z m -7.79681,-26.89023 c 15.74858,-4.10198 26.29598,-19.01307 24.82857,-35.10069 -0.48391,-5.30521 -2.59383,-11.59584 -3.80474,-11.34369 -0.43571,0.0908 -3.96176,2.10439 -7.83569,4.47478 l -7.04348,4.30982 0.38452,3.72557 c 1.42906,13.84621 -14.696816,22.00874 -24.787346,12.54672 -7.63263,-7.15721 -5.47008,-19.78082 4.15179,-24.2356 4.99426,-2.31225 11.791076,-1.33263 15.603476,2.24897 l 1.49168,1.40137 7.95504,-4.93875 7.955,-4.93871 -3.7846,-3.78421 c -12.77534,-12.77392 -33.658926,-12.67912 -46.549336,0.21124 -7.47689,7.47686 -11.02046,18.28761 -9.29416,28.3547 3.33616,19.45494 22.09508,31.92201 40.729276,27.0684 z m -3.13166,-24.01155 c 2.54857,-1.31791 4.21621,-4.38708 4.21621,-7.75963 v -2.54261 l -4.46896,2.49919 c -3.842376,2.14877 -4.645696,2.36996 -5.729286,1.57764 -2.05258,-1.5009 -1.00358,-3.48082 3.39702,-6.41163 4.099986,-2.7306 4.123806,-2.76615 2.467706,-3.68435 -0.919706,-0.50995 -3.219866,-0.93842 -5.111476,-0.9522 -3.06836,-0.0214 -3.73506,0.27078 -6.18234,2.71805 -2.48781,2.48782 -2.7431,3.08736 -2.7431,6.44213 0,3.35477 0.25529,3.95431 2.7431,6.44212 2.40279,2.40278 3.15219,2.74308 6.04078,2.74308 1.81377,0 4.23041,-0.48231 5.370346,-1.07179 z m 63.75014,-38.58794 3.05413,-1.30133 -3.03702,-1.67007 -5.80524,-2.87876 -0.20055,-6.62364 -0.20055,-6.623627 -4.04447,2.562927 c 0,0 -12.5808,9.85263 -13.28764,12.59792 -0.42049,1.63322 -1.09627,4.02409 -1.50175,5.31309 -0.40548,1.28902 -0.55767,2.52322 -0.33818,2.7427 0.45453,0.45454 8.81769,2.9122 10.17019,2.98871 6.01525,-2.54301 15.19108,-7.10789 15.19108,-7.10789 z"
       id="path948"
       sodipodi:nodetypes="cssssssccccccsscsccssssssssssssssscssssssssssssscsssscccssssssscsssscssssscccccccsssccc" />
  </g>
</svg>
