<svg xmlns="http://www.w3.org/2000/svg" viewBox="0 0 132.5 132.3">
  <path d="M0 0v21.8h5.4v-6.2l.1-6.3 7.7 7.6 49.2 49.2-29.7 29.7H19l-9.6 9.5L0 115h17.4v8.7l.1 8.7 9.6-9.5 9.6-9.5V99.5l29.5-29.6 29.6 29.6v13.8l9.6 9.5 9.6 9.5v-17.4h17.5l-9.5-9.6-9.6-9.5H99.8L70.1 66.1 119.3 17l7.7-7.6v12.5h5.5V0h-22v2.7l.1 2.7h6.2l6.2.2-7.6 7.6-7.5 7.6-41.7 41.5-41.6-41.5-7.5-7.6-7.6-7.6 6.2-.2h6.2V0H11Zm21.6 101h9.8v9.8l-4.3 4L23 119v-9.8h-9.4l4-4.2zm79.5 0h9.8l4 4 4 4.1-4.6.2h-4.7v9.7l-4.2-4.1-4.3-4.2v-4.9z"/>
</svg>
