<?xml version="1.0" encoding="UTF-8" standalone="no"?>
<!-- Created with Inkscape (http://www.inkscape.org/) -->

<svg
   width="132.2917mm"
   height="132.45494mm"
   viewBox="0 0 132.2917 132.45494"
   version="1.1"
   id="svg5"
   inkscape:version="1.1 (c68e22c387, 2021-05-23)"
   sodipodi:docname="icon-session.svg"
   xmlns:inkscape="http://www.inkscape.org/namespaces/inkscape"
   xmlns:sodipodi="http://sodipodi.sourceforge.net/DTD/sodipodi-0.dtd"
   xmlns="http://www.w3.org/2000/svg"
   xmlns:svg="http://www.w3.org/2000/svg">
  <sodipodi:namedview
     id="namedview7"
     pagecolor="#ffffff"
     bordercolor="#666666"
     borderopacity="1.0"
     inkscape:pageshadow="2"
     inkscape:pageopacity="0.0"
     inkscape:pagecheckerboard="0"
     inkscape:document-units="mm"
     showgrid="false"
     inkscape:zoom="0.56630543"
     inkscape:cx="185.41231"
     inkscape:cy="-369.05879"
     inkscape:window-width="3840"
     inkscape:window-height="2066"
     inkscape:window-x="-11"
     inkscape:window-y="-11"
     inkscape:window-maximized="1"
     inkscape:current-layer="layer1"
     fit-margin-top="0"
     fit-margin-left="0"
     fit-margin-right="0"
     fit-margin-bottom="0" />
  <defs
     id="defs2" />
  <g
     inkscape:label="Capa 1"
     inkscape:groupmode="layer"
     id="layer1"
     transform="translate(-38.854149,-82.272529)">
    <path
       style="fill:#000000;stroke-width:0.165571"
       d="m 143.60139,212.91518 c -0.8776,-0.99678 -1.59564,-1.90668 -1.59564,-2.02198 0,-0.11532 0.31504,-0.53065 0.70008,-0.92299 l 0.70008,-0.71333 -23.75571,-23.75615 c -13.06563,-13.06588 -23.830563,-23.75614 -23.922071,-23.75614 -0.0915,0 -4.133612,3.96777 -8.982474,8.81727 l -8.816105,8.81726 0.005,6.70507 0.005,6.70508 -9.318633,9.2572 -9.318632,9.2572 -0.04287,-8.47074 -0.04293,-8.47073 h -8.48352 -8.483482 l 9.270898,-9.27201 9.270897,-9.27201 h 6.623989 6.623987 l 8.96924,-8.98226 8.969234,-8.98226 -23.788462,-23.8885 C 55.105614,120.82649 44.35066,110.07883 44.289371,110.08146 c -0.06126,0.003 -0.412435,0.31186 -0.78032,0.68715 -0.369268,0.37672 -0.76925,0.64385 -0.892966,0.59638 -0.351577,-0.13492 -3.761936,-3.1096 -3.761936,-3.28135 0,-0.47543 5.050835,-5.41862 8.361368,-8.183166 13.490749,-11.26582 31.009847,-17.62087 48.595266,-17.62794 18.376157,-0.007 36.223107,6.89327 50.075987,19.362236 l 1.31517,1.18377 7.33595,-7.334556 c 4.03478,-4.03401 7.33595,-7.38983 7.33595,-7.45738 0,-0.0675 -2.70089,-0.14237 -6.00197,-0.16627 l -6.00197,-0.0435 -0.0456,-2.60775 -0.0456,-2.60775 h 10.68357 10.68358 v 10.59658 10.596576 h -2.64711 -2.6471 l -0.0434,-6.057276 -0.0434,-6.05729 -7.43159,7.37947 c -6.73683,6.689576 -7.41035,7.406776 -7.20446,7.671606 0.12492,0.16067 0.73903,0.84847 1.36469,1.52843 4.12443,4.48237 8.11336,10.37638 11.09719,16.39709 4.84078,9.76762 7.20729,19.48599 7.49919,30.79631 0.32468,12.58076 -2.1476,24.2905 -7.4643,35.35407 -2.8114,5.85026 -6.397,11.34212 -10.74109,16.4515 -1.73324,2.03859 -7.17074,7.46907 -7.47872,7.46907 -0.11504,0 -0.92719,-0.81555 -1.8048,-1.81233 z m 4.73807,-8.66008 c 2.63123,-2.96524 5.55667,-6.99831 7.65516,-10.55357 5.31874,-9.01101 8.43906,-18.62 9.54397,-29.39058 0.30064,-2.93061 0.25367,-10.53897 -0.0842,-13.63331 -1.22727,-11.24087 -4.63894,-21.11217 -10.50497,-30.39499 -1.91041,-3.02317 -3.77969,-5.46353 -7.34908,-9.59429 l -0.44875,-0.51932 -23.84888,23.84209 -23.848885,23.8421 23.800695,23.80113 c 13.09039,13.09063 23.84998,23.80114 23.91021,23.80114 0.0602,0 0.58885,-0.54018 1.1747,-1.2004 z m -75.568141,-18.70959 0.02553,-4.76018 h -4.761477 -4.761478 l -3.931028,3.93359 c -2.162072,2.16347 -3.931033,3.9889 -3.931033,4.0565 0,0.0676 2.048949,0.12291 4.553218,0.12291 h 4.553224 v 4.75648 4.75647 l 4.113775,-4.05279 4.113781,-4.0528 z m 46.882481,-55.51952 23.75931,-23.77116 -1.07621,-0.99155 c -1.37855,-1.27009 -4.4905,-3.68625 -6.75676,-5.24601 -8.82794,-6.075846 -19.34011,-10.195576 -29.83457,-11.692176 -5.239,-0.74712 -12.591028,-0.89985 -17.302225,-0.35942 -11.675023,1.33926 -21.731847,4.8882 -31.09068,10.97155 -3.125413,2.031546 -8.102367,5.923176 -9.048795,7.075506 -0.215963,0.26295 1.845283,2.37026 23.510953,24.03632 13.061218,13.06146 23.822367,23.7481 23.913675,23.7481 0.0913,0 10.857692,-10.69702 23.925302,-23.77116 z"
       id="path836" />
  </g>
</svg>
