<svg xmlns="http://www.w3.org/2000/svg" viewBox="0 0 150.7 132.3">
  <path d="M56.7 131.9A66.8 66.8 0 0 1 3.4 86.7a65.4 65.4 0 0 1 15-66.3A66 66 0 0 1 50 1.7a77.8 77.8 0 0 1 32.5 0 66.6 66.6 0 0 1 28 15.2c2.8 2.5 4 3.3 4.7 2.8C122.9 13.5 133.6 7 133.6 7l.5 10.7v8.6l7.8 3.7 8.8 4.3-7.4 3.2-14 7 1.4 5.4a84.3 84.3 0 0 1 0 32.8 67.7 67.7 0 0 1-47.8 47.7 89 89 0 0 1-26.2 1.5zm25.5-6.8c6.7-1.8 16.7-7 22.3-11.6A63.8 63.8 0 0 0 125 83.1a62.6 62.6 0 0 0-.5-35.5c-.1-.3-1-.2-2 .3-1.4.6-3 .4-8.8-1.1-6.5-1.8-7.2-1.9-9-.9-4 2.2-4 1.9-1.9 8a38.5 38.5 0 0 1-63.1 39.8A36 36 0 0 1 28.3 64a37.7 37.7 0 0 1 38-36.4c10.7 0 19.9 3.9 27.4 11.5l4.4 4.5 2.8-1.9c2-1.4 3-2.5 3.5-4.8 2.3-8.5 3.1-11 4.3-12.3 1.4-1.4 1.4-1.5-2-4.3A65.3 65.3 0 0 0 81.5 7C74.5 5.2 58 5.2 51 7A61.2 61.2 0 0 0 53.9 126c5.6 1.3 22.4.8 28.3-.8zm-7.8-26.9a33.3 33.3 0 0 0 24.8-35c-.5-5.4-2.6-11.7-3.8-11.4-.4 0-4 2.1-7.8 4.5l-7 4.3.3 3.7a14.8 14.8 0 1 1-5-9.4l1.5 1.4 8-5 7.9-5-3.8-3.7a33 33 0 0 0-55.9 28.6 33.1 33.1 0 0 0 40.8 27zm-3.2-24c2.6-1.3 4.2-4.4 4.2-7.7v-2.6L71 66.4c-3.9 2.2-4.7 2.4-5.8 1.6-2-1.5-1-3.5 3.4-6.4 4.1-2.7 4.2-2.8 2.5-3.7-1-.5-3.2-1-5.1-1-3 0-3.7.3-6.2 2.8s-2.7 3-2.7 6.4c0 3.4.2 4 2.7 6.5 2.4 2.4 3.2 2.7 6 2.7 1.9 0 4.3-.5 5.4-1zM135 35.6l3-1.3-3-1.6-5.8-3-.2-6.5-.2-6.7-4 2.6s-12.6 9.9-13.3 12.6L110 37c-.4 1.3-.6 2.5-.4 2.8.5.4 8.8 2.9 10.2 3 6-2.6 15.2-7.2 15.2-7.2z"/>
</svg>
