<svg xmlns="http://www.w3.org/2000/svg" viewBox="0 0 132.3 132.5">
  <path d="m104.7 130.6-1.5-2 .7-.9.7-.7-23.8-23.8a2445 2445 0 0 0-24-23.7l-9 8.8-8.7 8.8v13.4l-9.3 9.3-9.4 9.2v-16.9h-17l9.3-9.3 9.2-9.3h13.3l9-9 9-9-23.9-23.8L5.4 27.8l-.7.7c-.4.4-.8.6-1 .6C3.5 29 0 26 0 25.8A76.6 76.6 0 0 1 57 0a75 75 0 0 1 50 19.4l1.3 1.1 7.4-7.3 7.3-7.4c0-.1-2.7-.2-6-.2h-6V.2H132.2v21.2H127v-12l-7.5 7.3c-6.8 6.7-7.4 7.4-7.2 7.7l1.3 1.5a72.6 72.6 0 0 1 18.6 47.2 75.7 75.7 0 0 1-25.6 59.3c-.2 0-1-.9-1.9-1.9zm4.8-8.6a70.8 70.8 0 0 0 6.6-84c-2-3-3.8-5.5-7.4-9.6l-.4-.5-23.9 23.8-23.8 23.9 23.8 23.8 24 23.8 1-1.2zm-75.6-18.7v-4.8h-9.5l-4 4a95 95 0 0 0-3.8 4l4.5.1h4.6v9.5l4-4 4.2-4zm46.9-55.5L104.6 24l-1.1-1A71.2 71.2 0 0 0 49.6 5.7a70 70 0 0 0-40.2 18c-.2.3 1.9 2.4 23.6 24 13 13.1 23.8 23.8 23.9 23.8l23.9-23.7z"/>
</svg>
