<?xml version="1.0" encoding="UTF-8" standalone="no"?>
<svg
   width="144.203"
   height="131.612"
   viewBox="0 0 144.2 131.6"
   version="1.1"
   id="svg4"
   sodipodi:docname="icon-scoresystem.svg"
   inkscape:version="1.1.2 (0a00cf5339, 2022-02-04)"
   xmlns:inkscape="http://www.inkscape.org/namespaces/inkscape"
   xmlns:sodipodi="http://sodipodi.sourceforge.net/DTD/sodipodi-0.dtd"
   xmlns="http://www.w3.org/2000/svg"
   xmlns:svg="http://www.w3.org/2000/svg">
  <defs
     id="defs8" />
  <sodipodi:namedview
     id="namedview6"
     pagecolor="#ffffff"
     bordercolor="#666666"
     borderopacity="1.0"
     inkscape:pageshadow="2"
     inkscape:pageopacity="0.0"
     inkscape:pagecheckerboard="0"
     showgrid="false"
     inkscape:zoom="6.6331338"
     inkscape:cx="72.062469"
     inkscape:cy="65.806"
     inkscape:window-width="1869"
     inkscape:window-height="2071"
     inkscape:window-x="102"
     inkscape:window-y="51"
     inkscape:window-maximized="0"
     inkscape:current-layer="svg4" />
  <path
     d="M0 0v59.613h64.203V0H0zm80 0v59.613h64.203V0H80zM4.9 4.9h54.403v49.813H4.9V4.9zm80 0h54.403v49.813H84.9V4.9zM33.6 15.55l-.094.382c-.545 2.239-1.224 3.336-2.264 3.974-1.04.639-2.57.843-4.838 1.002l-.465.031v3.764h6.553v19.943h4.758V15.551H33.6zm79.492.387c-1.57 0-4.095.227-6.274 1.688-2.178 1.461-3.94 4.185-3.94 8.883v.5h4.49l.027-.469c.06-.984.16-2.639.837-3.998.678-1.36 1.838-2.447 4.34-2.447 1.944 0 3.167.65 3.946 1.531.778.881 1.109 2.033 1.109 3.045 0 1.74-.478 2.784-1.316 3.668-.839.884-2.087 1.592-3.588 2.453h-.002l-3.72 2.16c-3.846 2.25-6.636 5.585-6.84 11.565l-.018.517h20.24v-4.316h-15.014c.294-1.045 1.1-2.68 4.324-4.46v.003l2.916-1.6-.004.004c2.108-1.124 4.034-2.23 5.46-3.746 1.425-1.515 2.318-3.46 2.318-6.088 0-2.742-1.04-4.992-2.73-6.53-1.692-1.536-4.015-2.363-6.561-2.363zM0 72v59.613h64.203V72H0zm80 0v59.613h64.203V72H80zM4.9 76.9h54.403v49.813H4.9V76.9zm80 0h54.403v49.813H84.9V76.9zm-51.388 9.76c-3.811 0-6.27 1.344-7.707 3.252-1.438 1.908-1.866 4.313-1.866 6.44v.5h4.399l.037-.46c.08-.98.209-2.407.86-3.542.65-1.136 1.757-2.032 4.119-2.032 1.988 0 3.114.629 3.79 1.414.677.786.905 1.782.905 2.522 0 1.633-.573 2.587-1.45 3.209-.875.622-2.113.887-3.406.887a28 28 0 0 1-1.806-.079l-.533-.035v4.07h.5c.545 0 1.105-.038 1.6-.038 1.168 0 2.735.12 3.944.752 1.21.631 2.11 1.693 2.11 3.904 0 1.489-.566 2.694-1.541 3.556-.975.863-2.378 1.377-4.074 1.377-2.505 0-3.764-.803-4.502-1.888-.739-1.086-.936-2.54-.995-3.828l-.021-.477h-4.652l.039.537c.244 3.298 1.137 6.77 4.46 8.518 1.43.756 3.269 1.297 5.43 1.297 3.68 0 6.361-1.156 8.098-2.946 1.737-1.79 2.514-4.182 2.514-6.588 0-1.965-.522-3.51-1.426-4.664-.7-.893-1.654-1.484-2.693-1.947 1.507-.854 3.04-2.666 3.04-5.816 0-2.265-.87-4.268-2.466-5.676-1.596-1.408-3.894-2.219-6.707-2.219zm79.72.387-13.113 18.162v4.1h12.27v6.834h4.517v-6.834h4.117v-4.038h-4.117V87.047h-3.674zm-.843 7.443v10.781h-7.57l7.57-10.78z"
     color="#000"
     paint-order="markers stroke fill"
     id="path2" />
</svg>
