<svg xmlns="http://www.w3.org/2000/svg" fill="none" style="-webkit-print-color-adjust:exact" viewBox="5086.1 941.1 30.8 31.8">
  <path fill="#000" d="m5100.8 942-.8.1a8.6 8.6 0 0 0-4.8 14.4 9.2 9.2 0 0 0 2.4 1.8l.1.1V958.7l-.1.1a9.7 9.7 0 0 1-.6.2 14.2 14.2 0 0 0-6 3.8c-1.2 1.2-2 2.5-2.8 4-.7 1.6-1 3.2-1.2 5v.2h1.6a13 13 0 0 1 15.7-12 13 13 0 0 1 10.1 12h1.6v-1a15 15 0 0 0-10.6-12.3.2.2 0 0 1-.1 0V958.3l.2-.1.4-.3c2-1.3 3.4-3.1 4-5.4.2-.6.2-1 .2-1.9l-.1-1.8a8.6 8.6 0 0 0-8.7-6.9h-.5Zm.4 1.6H5101.5c.7 0 1.3 0 1.7.2 1.1.2 2.2.8 3 1.6 1 .8 1.7 2 2.1 3.4.3 1 .3 2.5 0 3.5a7.2 7.2 0 0 1-7.8 5.4 7 7 0 0 1 .7-14.1Z" color="#000"/>
  <path d="m5100.8 942-.8.1a8.6 8.6 0 0 0-4.8 14.4 9.2 9.2 0 0 0 2.4 1.8l.1.1V958.7l-.1.1a9.7 9.7 0 0 1-.6.2 14.2 14.2 0 0 0-6 3.8c-1.2 1.2-2 2.5-2.8 4-.7 1.6-1 3.2-1.2 5v.2h1.6a13 13 0 0 1 15.7-12 13 13 0 0 1 10.1 12h1.6v-1a15 15 0 0 0-10.6-12.3.2.2 0 0 1-.1 0V958.3l.2-.1.4-.3c2-1.3 3.4-3.1 4-5.4.2-.6.2-1 .2-1.9l-.1-1.8a8.6 8.6 0 0 0-8.7-6.9h-.5Zm.4 1.6H5101.5c.7 0 1.3 0 1.7.2 1.1.2 2.2.8 3 1.6 1 .8 1.7 2 2.1 3.4.3 1 .3 2.5 0 3.5a7.2 7.2 0 0 1-7.8 5.4 7 7 0 0 1 .7-14.1Z" class="stroke-shape" color="#000"/>
</svg>
